<?xml version="1.0" standalone="no"?>
<!DOCTYPE svg PUBLIC "-//W3C//DTD SVG 20010904//EN"
 "http://www.w3.org/TR/2001/REC-SVG-20010904/DTD/svg10.dtd">
<svg version="1.0" xmlns="http://www.w3.org/2000/svg"
 width="260.000000pt" height="260.000000pt" viewBox="0 0 260.000000 260.000000"
 preserveAspectRatio="xMidYMid meet">
<metadata>
Created by potrace 1.14, written by Peter Selinger 2001-2017
</metadata>
<g transform="translate(0.000000,260.000000) scale(0.100000,-0.100000)"
fill="#000000" stroke="none">
<path d="M1148 2589 c-491 -61 -904 -391 -1072 -857 -95 -264 -95 -600 0 -864
155 -431 515 -744 967 -839 144 -31 370 -31 514 0 518 109 905 496 1014 1014
31 144 31 370 0 514 -95 452 -408 812 -839 967 -163 58 -413 86 -584 65z m794
-541 c79 -36 142 -98 181 -177 29 -60 32 -74 32 -161 0 -84 -3 -102 -28 -152
-35 -72 -101 -139 -170 -172 -97 -47 -159 -57 -374 -63 -187 -5 -202 -7 -206
-25 -5 -18 9 -19 536 -18 l541 1 26 -24 c48 -45 15 -129 -47 -122 -13 1 -23
-2 -23 -6 0 -5 -249 -9 -552 -9 l-553 0 -44 -113 c-122 -311 -214 -426 -375
-473 -164 -46 -346 38 -423 194 -25 51 -28 67 -28 162 0 100 2 108 33 166 40
73 67 101 145 148 89 53 171 68 395 74 176 4 193 6 203 23 10 19 -2 19 -518
19 -290 0 -536 0 -545 0 -52 0 -76 85 -39 131 l19 24 578 5 577 5 62 151 c92
225 148 312 245 379 102 71 240 84 352 33z"/>
<path d="M1720 1909 c-92 -37 -150 -125 -250 -378 l-21 -53 168 5 c206 5 254
18 322 85 39 37 51 57 59 97 22 104 -27 200 -120 240 -42 17 -120 19 -158 4z"/>
<path d="M2369 1253 c-13 -16 -12 -17 4 -4 16 13 21 21 13 21 -2 0 -10 -8 -17
-17z"/>
<path d="M2402 1238 c-34 -34 6 -90 48 -68 35 19 20 80 -20 80 -9 0 -21 -5
-28 -12z"/>
<path d="M792 1105 c-120 -26 -192 -92 -207 -190 -14 -84 35 -174 116 -216 45
-23 125 -25 174 -5 75 32 149 141 228 339 l35 87 -141 -1 c-80 0 -170 -7 -205
-14z"/>
</g>
</svg>
